<?xml version="1.0" encoding="UTF-8"?>
<svg width="66px" height="61px" viewBox="0 0 66 61" version="1.1" xmlns="http://www.w3.org/2000/svg" xmlns:xlink="http://www.w3.org/1999/xlink">
    <!-- Generator: Sketch 44.1 (41455) - http://www.bohemiancoding.com/sketch -->
    <title>Layer_1</title>
    <desc>Created with Sketch.</desc>
    <defs>
        <linearGradient x1="50%" y1="0%" x2="1.79699729%" y2="215.110057%" id="linearGradient-1">
            <stop stop-color="#FB7A15" offset="0%"></stop>
            <stop stop-color="#EE2E5D" offset="100%"></stop>
        </linearGradient>
        <linearGradient x1="2662%" y1="12563%" x2="4163%" y2="12563%" id="linearGradient-2">
            <stop stop-color="#F8A36E" offset="0%"></stop>
            <stop stop-color="#F15B34" offset="87%"></stop>
        </linearGradient>
        <linearGradient x1="15285%" y1="6071%" x2="16785%" y2="6071%" id="linearGradient-3">
            <stop stop-color="#F8A36E" offset="0%"></stop>
            <stop stop-color="#F15B34" offset="87%"></stop>
        </linearGradient>
        <linearGradient x1="5075%" y1="996%" x2="6576%" y2="996%" id="linearGradient-4">
            <stop stop-color="#F8A36E" offset="0%"></stop>
            <stop stop-color="#F15B34" offset="87%"></stop>
        </linearGradient>
        <linearGradient x1="10833%" y1="9163%" x2="12334%" y2="9163%" id="linearGradient-5">
            <stop stop-color="#F8A36E" offset="0%"></stop>
            <stop stop-color="#F15B34" offset="87%"></stop>
        </linearGradient>
    </defs>
    <g id="Page-1" stroke="none" stroke-width="1" fill="none" fill-rule="evenodd">
        <g id="iPhone-7-Plus" transform="translate(-174.000000, -3123.000000)">
            <g id="wise" transform="translate(158.000000, 3103.000000)">
                <g id="Group-11">
                    <g id="Group-7">
                        <g id="Layer_1" transform="translate(16.000000, 20.000000)">
                            <path d="M46.9630058,60.6606875 C39.7144509,60.6606875 29.5016185,52.010125 21.783815,38.6778125 C12.6353757,22.814 10.9949133,7.18275 18.0450867,3.1224375 C25.0952601,-0.937875 37.8145665,8.2845625 46.9782659,24.1445625 C56.1419653,40.0045625 57.7900578,55.624375 50.7284393,59.696125 C49.5812252,60.3459697 48.2815758,60.6788911 46.9630058,60.6606875 Z M21.8563006,4.826625 C20.9930993,4.80654558 20.1400244,5.01572613 19.3841618,5.4328125 C14.4246243,8.296 15.1380347,21.799875 24.1147977,37.339625 C31.817341,50.683375 41.2824277,57.9919375 46.9286705,57.9919375 C47.7918917,58.0121999 48.6450137,57.8030078 49.4008092,57.38575 C54.3603468,54.5225625 53.6469364,41.0186875 44.6701734,25.4789375 C36.963815,12.139 27.5178035,4.826625 21.8563006,4.826625 Z" id="Shape" fill="url(#linearGradient-1)"></path>
                            <path d="M19.9716763,58.1596875 C18.5458426,58.1849571 17.1417148,57.8083929 15.9201156,57.073125 C12.4293642,54.922875 11.0979191,49.936125 12.1699422,43.027875 C13.1809249,36.5123125 16.2062428,28.921625 20.6889017,21.6435625 C30.3027746,6.0504375 43.2738728,-2.8174375 50.2134104,1.4373125 C57.152948,5.6920625 55.0584971,21.2623125 45.4446243,36.866875 C40.9619653,44.141125 35.5255491,50.256375 30.1616185,54.0879375 C26.396185,56.7871875 22.9092486,58.1596875 19.9716763,58.1596875 Z M46.1656647,3.0461875 C40.4812717,3.0461875 30.9551445,10.08025 22.962659,23.04275 C18.6593064,30.019625 15.7636994,37.263375 14.8099422,43.4358125 C13.9286705,49.1316875 14.8442775,53.275875 17.3240462,54.800875 C19.803815,56.325875 23.9164162,55.28125 28.6127168,51.933875 C33.7019653,48.304375 38.8713295,42.463625 43.1746821,35.48675 C52.5939884,20.2100625 53.6965318,6.732875 48.8171098,3.728625 C48.0141686,3.25499665 47.0938899,3.01715131 46.1618497,3.042375 L46.1656647,3.0461875 Z" id="Shape" fill="url(#linearGradient-1)"></path>
                            <path d="M33.0648555,43.78275 C14.7527168,43.78275 0.377687861,37.400625 0.377687861,29.2533125 C0.377687861,21.106 14.7336416,14.723875 33.0648555,14.723875 C51.3960694,14.723875 65.7520231,21.106 65.7520231,29.2533125 C65.7520231,37.400625 51.3960694,43.78275 33.0648555,43.78275 Z M33.0648555,17.392625 C15.1113295,17.392625 3.04820809,23.5269375 3.04820809,29.2533125 C3.04820809,34.9796875 15.1113295,41.114 33.0648555,41.114 C51.0183815,41.114 63.0815029,34.9796875 63.0815029,29.2533125 C63.0815029,23.5269375 51.0221965,17.40025 33.0648555,17.40025 L33.0648555,17.392625 Z" id="Shape" fill="url(#linearGradient-1)"></path>
                            <ellipse id="Oval" fill="url(#linearGradient-2)" cx="13.4021965" cy="48.2776875" rx="2.86127168" ry="2.859375"></ellipse>
                            <path d="M13.3983815,51.8995625 C11.3967483,51.8995625 9.77410405,50.2779938 9.77410405,48.2776875 C9.77410405,46.2773812 11.3967483,44.6558125 13.3983815,44.6558125 C15.4000147,44.6558125 17.022659,46.2773812 17.022659,48.2776875 C17.0205562,50.2771228 15.399143,51.8974611 13.3983815,51.8995625 L13.3983815,51.8995625 Z M13.3983815,46.1808125 C12.2395412,46.1808125 11.3001156,47.1196154 11.3001156,48.2776875 C11.3001156,49.4357596 12.2395412,50.3745625 13.3983815,50.3745625 C14.5572218,50.3745625 15.4966474,49.4357596 15.4966474,48.2776875 C15.4966493,47.1189971 14.5578386,46.1791029 13.3983815,46.177 L13.3983815,46.1808125 Z" id="Shape" fill="#FFFFFF"></path>
                            <ellipse id="Oval" fill="url(#linearGradient-3)" cx="61.5554913" cy="23.5269375" rx="2.86127168" ry="2.859375"></ellipse>
                            <path d="M61.5554913,27.1488125 C59.5538582,27.1488125 57.9312139,25.5272438 57.9312139,23.5269375 C57.9312139,21.5266312 59.5538582,19.9050625 61.5554913,19.9050625 C63.5571245,19.9050625 65.1797688,21.5266312 65.1797688,23.5269375 C65.177666,25.5263728 63.5562529,27.1467111 61.5554913,27.1488125 L61.5554913,27.1488125 Z M61.5554913,21.4300625 C60.3966511,21.4300625 59.4572254,22.3688654 59.4572254,23.5269375 C59.4572254,24.6850096 60.3966511,25.6238125 61.5554913,25.6238125 C62.7143316,25.6238125 63.6537572,24.6850096 63.6537572,23.5269375 C63.6537591,22.3682471 62.7149484,21.4283529 61.5554913,21.42625 L61.5554913,21.4300625 Z" id="Shape" fill="#FFFFFF"></path>
                            <ellipse id="Oval" fill="url(#linearGradient-4)" cx="22.6040462" cy="4.1785" rx="2.86127168" ry="2.859375"></ellipse>
                            <path d="M22.6040462,7.800375 C20.6024131,7.800375 18.9797688,6.17880633 18.9797688,4.1785 C18.9797688,2.17819367 20.6024131,0.556625 22.6040462,0.556625 C24.6056794,0.556625 26.2283237,2.17819367 26.2283237,4.1785 C26.226221,6.17793527 24.6048078,7.79827365 22.6040462,7.800375 L22.6040462,7.800375 Z M22.6040462,2.081625 C21.445206,2.081625 20.5057803,3.02042792 20.5057803,4.1785 C20.5057803,5.33657208 21.445206,6.275375 22.6040462,6.275375 C23.7628865,6.275375 24.7023121,5.33657208 24.7023121,4.1785 C24.702314,3.01980957 23.7635033,2.07991539 22.6040462,2.0778125 L22.6040462,2.081625 Z" id="Shape" fill="#FFFFFF"></path>
                            <ellipse id="Oval" fill="url(#linearGradient-5)" cx="44.5747977" cy="35.3151875" rx="2.86127168" ry="2.859375"></ellipse>
                            <path d="M44.5671676,38.9370625 C42.5655345,38.9370625 40.9428902,37.3154938 40.9428902,35.3151875 C40.9428902,33.3148812 42.5655345,31.6933125 44.5671676,31.6933125 C46.5688008,31.6933125 48.1914451,33.3148812 48.1914451,35.3151875 C48.1893423,37.3146228 46.5679292,38.9349611 44.5671676,38.9370625 L44.5671676,38.9370625 Z M44.5671676,33.2183125 C43.4083274,33.2183125 42.4689017,34.1571154 42.4689017,35.3151875 C42.4689017,36.4732596 43.4083274,37.4120625 44.5671676,37.4120625 C45.7260079,37.4120625 46.6654335,36.4732596 46.6654335,35.3151875 C46.6654354,34.1564971 45.7266247,33.2166029 44.5671676,33.2145 L44.5671676,33.2183125 Z" id="Shape" fill="#FFFFFF"></path>
                            <ellipse id="Oval" fill="#FFFFFF" transform="translate(22.601335, 4.183072) rotate(-19.310000) translate(-22.601335, -4.183072) " cx="22.6013352" cy="4.18307181" rx="1.32381503" ry="1.3229375"></ellipse>
                            <ellipse id="Oval" fill="#FFFFFF" transform="translate(13.395836, 48.286646) rotate(-19.310000) translate(-13.395836, -48.286646) " cx="13.3958365" cy="48.2866461" rx="1.32381503" ry="1.3229375"></ellipse>
                            <ellipse id="Oval" fill="#FFFFFF" transform="translate(44.567241, 35.321669) rotate(-19.310000) translate(-44.567241, -35.321669) " cx="44.5672414" cy="35.3216686" rx="1.32381503" ry="1.3229375"></ellipse>
                            <ellipse id="Oval" fill="#FFFFFF" transform="translate(61.553336, 23.536111) rotate(-19.310000) translate(-61.553336, -23.536111) " cx="61.5533364" cy="23.536111" rx="1.32381503" ry="1.3229375"></ellipse>
                        </g>
                    </g>
                </g>
            </g>
        </g>
    </g>
</svg>