<?xml version="1.0" encoding="UTF-8"?>
<svg width="21px" height="20px" viewBox="0 0 21 20" version="1.1" xmlns="http://www.w3.org/2000/svg" xmlns:xlink="http://www.w3.org/1999/xlink">
    <!-- Generator: Sketch 44.1 (41455) - http://www.bohemiancoding.com/sketch -->
    <title>Slice 1</title>
    <desc>Created with Sketch.</desc>
    <defs></defs>
    <g id="Page-1" stroke="none" stroke-width="1" fill="none" fill-rule="evenodd">
        <g id="34227" fill="#FFFFFF">
            <g id="Capa_1">
                <path d="M20.9528794,12.2475793 L20.9528794,19.9765049 L16.4749724,19.9765049 L16.4749724,12.7652161 C16.4749724,10.9536816 15.8272915,9.71738012 14.2064376,9.71738012 C12.9691212,9.71738012 12.2327934,10.5505567 11.9088557,11.3565148 C11.7907246,11.6446417 11.7603175,12.0456766 11.7603175,12.4489959 L11.7603175,19.9765049 L7.2809048,19.9765049 C7.2809048,19.9765049 7.34123327,7.76294866 7.2809048,6.49753316 L11.7598804,6.49753316 L11.7598804,8.40812344 C11.7507971,8.42241314 11.7389937,8.43782073 11.7304447,8.45167298 L11.7598804,8.45167298 L11.7598804,8.40812344 C12.3549561,7.49100705 13.4176988,6.1808755 15.7964472,6.1808755 C18.7435558,6.1808269 20.9528794,8.10735943 20.9528794,12.2475793 Z M2.59524839,0 C1.06284712,0 0.0605300127,1.00577081 0.0605300127,2.32839369 C0.0605300127,3.62219417 1.03384866,4.65848854 2.53579425,4.65848854 L2.56571562,4.65848854 C4.12779538,4.65848854 5.09926823,3.62238859 5.09926823,2.32839369 C5.0698326,1.00577081 4.12779538,0 2.59524839,0 Z M0.326567852,19.9765049 L4.8042805,19.9765049 L4.8042805,6.49753316 L0.326567852,6.49753316 L0.326567852,19.9765049 Z" id="LinkedIn"></path>
            </g>
        </g>
    </g>
</svg>