<?xml version="1.0" encoding="UTF-8"?>
<svg width="68px" height="54px" viewBox="0 0 68 54" version="1.1" xmlns="http://www.w3.org/2000/svg" xmlns:xlink="http://www.w3.org/1999/xlink">
    <!-- Generator: Sketch 44.1 (41455) - http://www.bohemiancoding.com/sketch -->
    <title>Group 6</title>
    <desc>Created with Sketch.</desc>
    <defs>
        <linearGradient x1="117.613181%" y1="28.9527693%" x2="50%" y2="100%" id="linearGradient-1">
            <stop stop-color="#FB7A15" offset="0%"></stop>
            <stop stop-color="#EE2E5D" offset="100%"></stop>
        </linearGradient>
        <linearGradient x1="5.61850257%" y1="79.263076%" x2="86.626063%" y2="47.9769843%" id="linearGradient-2">
            <stop stop-color="#FB7A15" offset="0%"></stop>
            <stop stop-color="#EE2E5D" offset="100%"></stop>
        </linearGradient>
    </defs>
    <g id="Page-1" stroke="none" stroke-width="1" fill="none" fill-rule="evenodd">
        <g id="iPhone-7-Plus" transform="translate(-73.000000, -3293.000000)">
            <g id="Group-16" transform="translate(46.000000, 3274.000000)">
                <g id="data">
                    <g id="Group-10" transform="translate(12.000000, 0.000000)">
                        <g id="Group-6" transform="translate(5.000000, 18.000000)">
                            <path d="M62,8.95847137 C62,4.563129 65.581722,1 70,1 C74.418278,1 78,4.563129 78,8.95847137 C77.9951304,13.3518056 74.4162594,16.9120984 70,16.9169427 C65.581722,16.9169427 62,13.3538137 62,8.95847137 Z M70,3.63700178 C67.0456975,3.63700178 64.6507621,6.01950487 64.6507621,8.95847137 C64.6507621,11.8974379 67.0456975,14.279941 70,14.279941 C72.9543025,14.279941 75.3492379,11.8974379 75.3492379,8.95847137 C75.3458295,6.02091049 72.9528896,3.64039249 70,3.63700178 L70,3.63700178 Z" id="Shape" fill="url(#linearGradient-1)"></path>
                            <g id="d51f3da4b2722317bdc252cc24fd1c46" transform="translate(43.024547, 42.714684) rotate(-34.000000) translate(-43.024547, -42.714684) translate(10.524547, 14.214684)" fill="url(#linearGradient-2)">
                                <g id="Group" transform="translate(32.057999, 28.059353) scale(1, -1) translate(-32.057999, -28.059353) translate(0.057999, 0.059353)">
                                    <path d="M27.3785456,55.704177 C16.6952096,54.8857142 7.11513527,49.1231469 1.5343843,40.1514621 C0.168195843,37.9575717 -0.0953754207,37.3518965 0.036087997,36.713534 C0.0857089929,36.4026848 0.266793407,35.9931329 0.431122679,35.8130327 C0.645072947,35.5508939 47.3783847,3.49497051 51.6915447,0.630030444 C52.7612961,-0.057683357 53.6506074,-0.1884323 54.3085689,0.286494007 C55.3454544,1.00689504 58.0617206,4.83771088 59.4936408,7.62125332 C65.2226103,18.7701644 64.1850804,31.7860934 56.7445087,42.1985803 C55.4930286,43.9502316 52.5963224,46.9952719 50.8512099,48.3873636 C46.7526446,51.6778786 41.5179517,54.1339078 36.4643433,55.1491349 C34.686365,55.4926713 30.5381786,55.9188872 29.4355614,55.8695359 C29.2061449,55.85159 28.2839677,55.7862155 27.3785456,55.704177 Z M30.3416279,51.0548984 C30.7366626,50.6780338 30.7534177,50.5639489 30.7534177,48.5988692 C30.7534177,46.7651794 30.7205519,46.5197047 30.4241148,46.2248786 C30.012325,45.8153268 29.5844244,45.8153268 29.123658,46.1921914 C28.8111102,46.4543302 28.7782443,46.6504536 28.7614892,48.6809078 C28.7447341,50.7600723 28.7614892,50.8908213 29.1069029,51.1696242 C29.6011796,51.5625119 29.8647508,51.5458479 30.3416279,51.0548984 Z M25.5844566,50.8421109 C25.8808937,50.6453466 26.094844,50.1217099 26.2101967,49.286583 C26.3584153,48.28802 26.2430625,47.9438427 25.6669435,47.6983679 C24.7782765,47.3381674 24.3497316,47.8618041 24.0868047,49.6140963 C24.0043179,50.1704203 24.0371837,50.3511614 24.3175101,50.6293234 C24.6629238,50.9728598 25.2390429,51.0715625 25.5844566,50.8421109 Z M35.0987992,50.6620106 C35.3456154,50.3838487 35.3784812,50.1710612 35.2798837,49.3192703 C35.1973968,48.6809078 35.0491783,48.2059815 34.8519831,48.0092171 C34.3415957,47.5016036 33.4690395,47.6329935 33.2222234,48.271356 C33.041139,48.7462823 33.420063,50.6286825 33.7326108,50.8254468 C34.1276455,51.0715625 34.8030066,50.9895239 35.0987992,50.6620106 Z M39.7741281,49.286583 C39.9552126,48.9263825 39.9055916,48.6642437 39.3133618,47.0273182 C38.6057792,45.0301922 38.3093421,44.5879531 37.733223,44.5879531 C37.3710542,44.5879531 36.6795824,45.2756669 36.6795824,45.6358675 C36.6963375,45.7339292 37.0088854,46.6671177 37.3871649,47.6990089 C37.913663,49.1231469 38.1772343,49.6147372 38.4736714,49.7621503 C38.9840588,50.0236482 39.5105569,49.8268838 39.7741281,49.286583 Z M21.2390751,49.5487218 C21.5355122,49.1885213 22.6877504,46.0127321 22.6877504,45.5378058 C22.6877504,44.719343 21.5355122,44.2610808 21.0083697,44.8827792 C20.7119326,45.2263156 19.5596944,48.4027458 19.5596944,48.8776721 C19.5596944,49.6961349 20.7119326,50.1543971 21.2390751,49.5487218 Z M43.7908511,47.7477193 C44.2026409,47.3714956 44.1530199,46.7818435 43.6265218,45.8159677 C43.214732,45.0462154 43.1490003,44.997505 42.5232602,44.997505 C41.9967621,44.997505 41.8317884,45.0795435 41.6345933,45.42308 C41.420643,45.8159677 41.4373982,45.9140294 41.8485435,46.7331331 C42.5232602,48.0425453 43.11549,48.3533945 43.7908511,47.7477193 Z M17.0245126,47.5842831 C17.5181448,47.0933336 18.0613981,45.7345701 17.9299347,45.3416823 C17.7488502,44.8834201 17.1398653,44.5885941 16.6952096,44.7360071 C16.3001749,44.8834201 15.2794002,46.4716352 15.2794002,46.9459206 C15.2800446,47.7477193 16.4322828,48.1732942 17.0245126,47.5842831 Z M47.4286501,45.3903927 C48.3508273,44.8994433 48.2354746,44.3918297 46.8853968,42.6401785 C45.5192084,40.8885272 45.1241737,40.577037 44.5480546,40.8064886 C44.1201541,40.9699248 43.9223145,41.2814149 43.9223145,41.8377389 C43.9223145,42.2146035 46.1610592,45.1282539 46.6385807,45.3737286 C47.0664813,45.6031802 47.0168603,45.6031802 47.4286501,45.3903927 Z M12.7281077,45.3083542 C13.1888741,45.1282539 15.6087031,41.9851519 15.6087031,41.5756001 C15.6087031,41.0519634 15.082205,40.6257474 14.5221967,40.6917628 C14.1600278,40.7244501 13.7649932,41.1013147 12.7442184,42.3286883 C11.3451641,44.0643164 11.1640797,44.5879531 11.8226856,45.1115898 C12.2177203,45.4391031 12.3169623,45.4557672 12.7281077,45.3083542 Z M10.6704474,41.8704261 C11.5591143,41.0519634 11.7073329,40.5116626 11.2137006,39.9713618 C10.7529343,39.4637483 10.1768152,39.6111613 9.32036966,40.429624 C8.46456859,41.2480868 8.31635003,41.7883875 8.80998227,42.3286883 C9.25528238,42.8196378 9.79853562,42.6888888 10.6704474,41.8704261 Z M51.2314228,41.9358006 C51.6593233,41.3467894 51.5439706,40.9699248 50.7377905,40.2168365 C49.8981002,39.4477251 49.3387362,39.3329993 48.8283488,39.7912615 C48.3018507,40.2661878 48.4500693,40.8878863 49.2891152,41.6249514 C50.1777821,42.3940628 50.8357437,42.5087886 51.2314228,41.9358006 Z M32.4489092,40.4129599 C36.1524399,39.856636 39.4615803,38.2684209 42.1939572,35.71433 C46.4078753,31.8014757 48.5312673,25.7601054 47.6922214,20.1122638 C47.5768686,19.4085269 47.4286501,18.8842492 47.3132974,18.9009133 C47.0336154,18.9009133 20.0043501,37.4499582 20.0043501,37.6300584 C20.0043501,37.9082204 22.5556426,39.1689222 24.1692916,39.6931998 C27.0498871,40.6097243 29.6011796,40.8391759 32.4489092,40.4129599 Z M8.84349256,38.2523978 C9.71604877,37.6467225 10.4732523,37.0737345 10.538984,36.9916959 C10.9340187,36.4187079 10.4403864,35.4201449 9.76502534,35.4201449 C9.45247751,35.4201449 6.93340643,37.00836 6.19295806,37.6633866 C5.83078923,37.9908999 5.81467852,38.7439881 6.16009221,39.0875246 C6.6208586,39.56181 7.19697769,39.3817097 8.84349256,38.2523978 Z M53.9637997,38.3664826 C54.2931027,38.0389693 54.3917002,37.4659813 54.1616392,37.1224449 C53.947689,36.7949316 50.6881695,34.7651184 50.3917324,34.7651184 C49.7995026,34.7651184 49.3380918,35.2560678 49.3877128,35.7963686 C49.4373338,36.2546308 49.6345289,36.4513952 51.2475335,37.5153326 C52.2354424,38.1536951 53.189841,38.6939959 53.3380596,38.6939959 C53.5030333,38.6939959 53.7827153,38.5465829 53.9637997,38.3664826 Z M56.0704365,34.3395434 C56.3668736,34.14342 56.4326053,33.9466556 56.3997395,33.4883934 C56.3501185,32.9314285 56.2843868,32.8500309 55.362854,32.4077918 C54.4741871,31.9822168 54.3588344,31.9655528 53.9799104,32.1623171 C53.4205464,32.4731663 53.1737303,33.1775442 53.4862782,33.5537679 C53.7169836,33.8319298 55.2146354,34.6016822 55.5278277,34.6016822 C55.6264253,34.6010413 55.8732414,34.4863155 56.0704365,34.3395434 Z M57.5519777,29.9190754 C57.7659279,29.7716624 57.9141465,29.4935005 57.9141465,29.2640489 C57.9141465,28.4289221 57.6834411,28.2654859 55.7411335,27.8072237 C53.4856337,27.2669229 53.1569752,27.2508997 52.7780512,27.7251851 C52.0704687,28.5929992 52.5969668,29.1006127 54.8685773,29.6896239 C57.0422347,30.2465887 57.0912113,30.2465887 57.5519777,29.9190754 Z M58.342047,25.1877583 C58.6384842,24.8769091 58.720971,24.6801448 58.6545949,24.4019828 C58.4567553,23.7796435 58.1280968,23.566856 57.107322,23.5014815 C56.2843868,23.436107 56.0865472,23.4854584 55.7901101,23.7796435 C55.1153935,24.4506932 55.543294,25.3678586 56.5640688,25.4819434 C57.8155489,25.6133333 57.9309016,25.5966692 58.342047,25.1877583 Z M56.4164946,21.0127651 C58.0791202,20.8493289 58.5727525,20.6032133 58.5727525,19.9161404 C58.5727525,19.5065886 58.0462544,18.8848902 57.7169514,18.8848902 C56.7129317,18.8848902 53.7994704,19.294442 53.5030333,19.4905654 C53.1904855,19.6706657 53.1247538,19.8507659 53.1737303,20.3256922 C53.2233513,20.996742 53.7330943,21.3736066 54.4413212,21.2428576 C54.6713822,21.2088885 55.5606936,21.1108268 56.4164946,21.0127651 Z M57.206564,16.1827454 C57.6840855,15.8552321 57.8155489,15.560406 57.6840855,15.0694566 C57.5197563,14.3984068 56.9429927,14.2183066 55.8732414,14.5291558 C54.6552715,14.8893563 54.2602368,15.6097573 54.9181983,16.3134943 C55.1489037,16.5756331 55.3460989,16.6083203 56.0047048,16.5262818 C56.4493605,16.4775714 56.9758586,16.3141352 57.206564,16.1827454 Z M54.128129,12.5320298 C55.8236204,11.696903 56.0214599,11.5494899 56.0704365,11.140579 C56.1361682,10.567591 55.7082677,10.0433134 55.1650144,10.0433134 C54.8028456,10.0433134 51.6425682,11.3860538 51.2140232,11.7295902 C50.8518544,11.991729 50.9504519,12.9409407 51.3622418,13.2197436 C51.5600813,13.3671566 51.8397633,13.4818824 51.9879819,13.4652183 C52.1200897,13.4652183 53.0912435,13.0396433 54.128129,12.5320298 Z M53.0087566,8.03016423 C53.8813128,7.37513766 54.0456421,6.63871347 53.4366572,6.21313848 C52.9101591,5.83627388 52.5151244,5.8856252 51.8397633,6.37657466 C50.7532568,7.17837332 50.5721724,7.65329963 51.1650466,8.24295172 C51.6425682,8.7172371 52.1858214,8.65186263 53.0087566,8.03016423 Z" id="Shape"></path>
                                </g>
                            </g>
                        </g>
                    </g>
                </g>
            </g>
        </g>
    </g>
</svg>