<?xml version="1.0" encoding="UTF-8"?>
<svg width="77px" height="30px" viewBox="0 0 77 30" version="1.1" xmlns="http://www.w3.org/2000/svg" xmlns:xlink="http://www.w3.org/1999/xlink">
    <!-- Generator: Sketch 44.1 (41455) - http://www.bohemiancoding.com/sketch -->
    <title>Group 4</title>
    <desc>Created with Sketch.</desc>
    <defs>
        <linearGradient x1="117.613181%" y1="28.9527693%" x2="50%" y2="100%" id="linearGradient-1">
            <stop stop-color="#FB7A15" offset="0%"></stop>
            <stop stop-color="#EE2E5D" offset="100%"></stop>
        </linearGradient>
    </defs>
    <g id="Page-1" stroke="none" stroke-width="1" fill="none" fill-rule="evenodd">
        <g id="iPhone-7-Plus" transform="translate(-272.000000, -3300.000000)">
            <g id="Group-17" transform="translate(244.000000, 3264.000000)">
                <g id="tools">
                    <g id="Group-15" transform="translate(17.000000, 0.000000)">
                        <g id="Group-4" transform="translate(11.000000, 36.000000)">
                            <g id="Group" opacity="0.565840127" transform="translate(0.000000, 1.978022)">
                                <path d="M26.7680619,12.9504396 C26.7680619,20.1028022 20.7758606,25.9008791 13.384031,25.9008791 C5.99220133,25.9008791 0,20.1028022 0,12.9504396 C0,5.79807692 5.99220133,0 13.384031,0 C20.7758606,0 26.7680619,5.79807692 26.7680619,12.9504396 Z" id="Stroke-3" fill="url(#linearGradient-1)"></path>
                                <path d="M13.3172385,11.1372867 C12.1817182,10.0385523 11.0461849,8.93982391 9.91063208,7.84111453 C9.43585553,7.38171892 8.96090863,6.92215848 8.48613208,6.46259804 C7.32176261,5.33611453 5.51430686,7.08386178 6.67918739,8.21100464 L11.5103412,12.8856475 L8.10364152,16.1819831 L6.67897116,17.5603347 C5.51477205,18.6869831 7.32103532,20.4358842 8.48591585,19.3087413 C10.0963173,17.7505107 11.7067583,16.1922419 13.3172007,14.6339717 L16.7237692,17.9301805 C17.1985458,18.3895761 17.6734927,18.8491365 18.1482692,19.3085321 C19.3126387,20.4351805 21.1200945,18.6872684 19.9552139,17.5602903 C18.3448459,16.0020921 16.7344779,14.4438557 15.1240909,12.8856178 C16.2595705,11.7869233 17.3950439,10.6882349 18.5304977,9.58956551 C19.0052743,9.1301699 19.4802212,8.67060946 19.9549977,8.21121386 C21.1193672,7.08456551 19.3129336,5.33566441 18.1482234,6.46280726 L13.3172385,11.1372867 Z" id="Combined-Shape" fill="#FFFFFF"></path>
                            </g>
                            <g id="Group-2" opacity="0.541383605" transform="translate(50.084071, 1.978022)">
                                <path d="M26.7680619,12.9504396 C26.7680619,20.1028022 20.7758606,25.9008791 13.384031,25.9008791 C5.99220133,25.9008791 0,20.1028022 0,12.9504396 C0,5.79807692 5.99220133,0 13.384031,0 C20.7758606,0 26.7680619,5.79807692 26.7680619,12.9504396 Z" id="Stroke-3" fill="url(#linearGradient-1)"></path>
                                <path d="M13.3840688,11.6317922 C12.2485485,10.5330577 11.1130152,9.4343294 9.97746239,8.33562002 C9.50268584,7.87622442 9.02773894,7.41666398 8.55296239,6.95710354 C7.38859292,5.83062002 5.58113717,7.57836727 6.7460177,8.70551013 L11.5771715,13.380153 L8.17047183,16.6764886 L6.74580147,18.0548402 C5.58160236,19.1814886 7.38786563,20.9303897 8.55274616,19.8032468 C10.1631477,18.2450162 11.7735886,16.6867474 13.384031,15.1284772 L16.7905996,18.424686 C17.2653761,18.8840816 17.740323,19.343642 18.2150996,19.8030376 C19.379469,20.929686 21.1869248,19.1817739 20.0220442,18.0547958 C18.4116762,16.4965976 16.8013082,14.9383612 15.1909212,13.3801233 C16.3264009,12.2814288 17.4618742,11.1827404 18.597328,10.084071 C19.0721046,9.6246754 19.5470515,9.16511496 20.021828,8.70571935 C21.1861975,7.579071 19.3797639,5.8301699 18.2150537,6.95731276 L13.3840688,11.6317922 Z" id="Combined-Shape" fill="#FFFFFF"></path>
                            </g>
                            <g id="Group-3" transform="translate(22.997788, 0.000000)">
                                <path d="M30.8340967,14.9175949 C30.8340967,23.1563924 23.9316875,29.8351899 15.4170483,29.8351899 C6.90240912,29.8351899 0,23.1563924 0,14.9175949 C0,6.67879747 6.90240912,0 15.4170483,0 C23.9316875,0 30.8340967,6.67879747 30.8340967,14.9175949 Z" id="Stroke-3" fill="url(#linearGradient-1)"></path>
                                <polyline id="Path-2" stroke="#FFFFFF" stroke-width="2.89800005" stroke-linecap="round" stroke-linejoin="round" points="7.06429932 14.9050633 13.2455612 20.0316456 23.8420102 10.6329114"></polyline>
                            </g>
                        </g>
                    </g>
                </g>
            </g>
        </g>
    </g>
</svg>