<?xml version="1.0" encoding="UTF-8"?>
<svg width="21px" height="18px" viewBox="0 0 21 18" version="1.1" xmlns="http://www.w3.org/2000/svg" xmlns:xlink="http://www.w3.org/1999/xlink">
    <!-- Generator: Sketch 44.1 (41455) - http://www.bohemiancoding.com/sketch -->
    <title>Slice 1</title>
    <desc>Created with Sketch.</desc>
    <defs></defs>
    <g id="Page-1" stroke="none" stroke-width="1" fill="none" fill-rule="evenodd">
        <g id="Twitter_bird_logo_2012" fill="#FFFFFF">
            <g id="Group">
                <path d="M6.49914607,17.1221918 C14.2828944,17.1221918 18.5395236,10.5584971 18.5395236,4.86669276 C18.5395236,4.68026067 18.535793,4.49467397 18.5275773,4.30992564 C19.3538479,3.7019272 20.072007,2.94319374 20.6384502,2.07947554 C19.8802164,2.42252524 19.0642587,2.65346067 18.2082956,2.75759295 C19.0819773,2.22433503 19.7527252,1.38078669 20.0691693,0.375181996 C19.2515504,0.868551076 18.3460996,1.22713503 17.382025,1.4207319 C16.6098102,0.583502935 15.5104232,0.0598473581 14.2930964,0.0598473581 C11.9561724,0.0598473581 10.0611072,1.98884149 10.0611072,4.36660274 C10.0611072,4.70460822 10.0982333,5.03338474 10.1708383,5.34874755 C6.65375515,5.1686137 3.53506481,3.45462622 1.44786301,0.848395303 C1.08443685,1.48494012 0.874879191,2.22435616 0.874879191,3.01332681 C0.874879191,4.50771429 1.62196953,5.82696282 2.75803964,6.59874364 C2.06375919,6.57690975 1.41156054,6.38291977 0.841518292,6.06002583 C0.840895371,6.07809769 0.840895371,6.09571656 0.840895371,6.11503115 C0.840895371,8.20105855 2.29956953,9.94272587 4.23588593,10.3373873 C3.88029474,10.4360597 3.50616818,10.4889677 3.12002616,10.4889677 C2.847768,10.4889677 2.58251425,10.4616923 2.32469402,10.4112895 C2.86343793,12.1227337 4.4256693,13.3681505 6.27782211,13.4029529 C4.82946076,14.5584754 3.00492413,15.2467024 1.02195784,15.2467024 C0.680804584,15.2467024 0.343783371,15.226951 0.0125484045,15.1870777 C1.88539604,16.4089641 4.10922526,17.1219191 6.49937447,17.1219191" id="Shape"></path>
            </g>
        </g>
    </g>
</svg>