<?xml version="1.0" encoding="UTF-8"?>
<svg width="23px" height="23px" viewBox="0 0 23 23" version="1.1" xmlns="http://www.w3.org/2000/svg" xmlns:xlink="http://www.w3.org/1999/xlink">
    <!-- Generator: Sketch 44.1 (41455) - http://www.bohemiancoding.com/sketch -->
    <title>Slice 1</title>
    <desc>Created with Sketch.</desc>
    <defs></defs>
    <g id="Page-1" stroke="none" stroke-width="1" fill="none" fill-rule="evenodd">
        <g id="whatsapp-logo" fill-rule="nonzero" fill="#FFFFFF">
            <path d="M23,11.2038111 C23,17.3915778 17.9453667,22.4076222 11.7090444,22.4076222 C9.72925556,22.4076222 7.86932222,21.9016222 6.25114444,21.0135667 L0,23 L2.03805556,16.9888222 C1.00995556,15.3006222 0.417833333,13.3205778 0.417833333,11.2038111 C0.417833333,5.01604444 5.47297778,0 11.7090444,0 C17.9458778,0 23,5.01604444 23,11.2038111 Z M11.7090444,1.78428889 C6.47424444,1.78428889 2.21617778,6.0099 2.21617778,11.2038111 C2.21617778,13.2648667 2.88803333,15.1736111 4.02448889,16.7263667 L2.83845556,20.2246667 L6.48651111,19.0652111 C7.98534444,20.0493556 9.78087778,20.6233333 11.7093,20.6233333 C16.9433333,20.6233333 21.2021667,16.3982333 21.2021667,11.2043222 C21.2021667,6.01041111 16.9435889,1.78428889 11.7090444,1.78428889 Z M17.4107444,13.7841556 C17.3409778,13.6699222 17.1567222,13.6009222 16.8802111,13.4636889 C16.6031889,13.3264556 15.2421,12.6617556 14.9891,12.5705222 C14.7353333,12.4790333 14.5503111,12.4330333 14.3660556,12.7077556 C14.1818,12.9827333 13.6512667,13.6009222 13.4895,13.7841556 C13.3279889,13.9679 13.1667333,13.9909 12.8897111,13.8534111 C12.6132,13.7161778 11.7215667,13.4258667 10.6643333,12.4905333 C9.8417,11.7627111 9.28612222,10.8641778 9.12461111,10.5889444 C8.96335556,10.3142222 9.10774444,10.1657444 9.246,10.0290222 C9.37071111,9.90584444 9.52302222,9.7083 9.66127778,9.54806667 C9.80004444,9.38757778 9.84604444,9.27334444 9.93778889,9.08985556 C10.0305556,8.90662222 9.9843,8.74638889 9.91478889,8.60864444 C9.84578889,8.47141111 9.29174444,7.12003333 9.06123333,6.57007778 C8.83072222,6.02063333 8.60046667,6.11212222 8.4387,6.11212222 C8.27744444,6.11212222 8.09267778,6.08912222 7.90816667,6.08912222 C7.72365556,6.08912222 7.42363333,6.15786667 7.16986667,6.43258889 C6.91635556,6.70756667 6.20156667,7.37201111 6.20156667,8.72313333 C6.20156667,10.0745111 7.19286667,11.3801444 7.33163333,11.5631222 C7.46988889,11.7461 9.24574444,14.6093444 12.0594111,15.709 C14.8733333,16.8081444 14.8733333,16.4414222 15.3808667,16.3954222 C15.8878889,16.3496778 17.0179556,15.7312333 17.2494889,15.0903 C17.4794889,14.4483444 17.4794889,13.8986444 17.4107444,13.7841556 Z" id="WhatsApp"></path>
        </g>
    </g>
</svg>