<?xml version="1.0" encoding="UTF-8"?><svg width="60px" height="45px" viewBox="0 0 60 45" version="1.1" xmlns="http://www.w3.org/2000/svg" xmlns:xlink="http://www.w3.org/1999/xlink"><g id="Page-1" stroke="none" stroke-width="1" fill="none" fill-rule="evenodd"><g id="Layer_1-Copy" fill="#F4503D"><rect id="Rectangle-path" x="0" y="4.29483024" width="8.92388503" height="39.5714692" rx="3"></rect><path d="M32.6866204,2.69129288 C21.0023786,2.69129288 11.5308226,12.1131839 11.5308226,23.7354287 C11.5308226,35.3576735 21.0023786,44.7795645 32.6866204,44.7795645 C33.5341688,44.7778228 34.3808609,44.7258766 35.2222002,44.6240019 C35.2177971,44.6264809 35.2132273,44.6286549 35.2085233,44.6305083 C35.0188305,44.6523935 48.8455897,44.7795645 48.8455897,44.7795645 L48.8455897,38.9237844 C48.8455897,38.9237844 49.1708622,37.3515962 50.3970268,35.2429238 C50.5873142,34.9534866 50.770664,34.6591203 50.9470763,34.3598249 C50.9672944,34.3296587 50.9851338,34.3006756 51.0065411,34.2699179 C51.049895,34.209107 51.0858261,34.1433843 51.1135778,34.0741338 C52.907417,30.9214599 53.8482748,27.3597903 53.8442022,23.7372032 C53.8430129,12.1131839 44.3708622,2.69129288 32.6866204,2.69129288 Z M32.6866204,32.4433877 C27.850051,32.4433877 23.9292369,28.5433776 23.9292369,23.7324712 C23.9292369,18.9215649 27.850051,15.0215547 32.6866204,15.0215547 C37.5231898,15.0215547 41.444004,18.9215649 41.444004,23.7324712 C41.4447927,26.0431598 40.5225722,28.2594857 38.8802874,29.8937221 C37.2380025,31.5279586 35.0102298,32.4461884 32.6872151,32.4463452 L32.6866204,32.4433877 Z" id="Shape"></path><path d="M49.211893,5.35537708 C49.211893,2.39768399 51.622367,0 54.5958375,0 C57.5693079,0 59.979782,2.39768399 59.979782,5.35537708 C59.9765047,8.31171885 57.5679494,10.7074943 54.5958375,10.7107542 C51.622367,10.7107542 49.211893,8.31307017 49.211893,5.35537708 Z M54.5958375,1.77447882 C52.6076124,1.77447882 50.9958375,3.37770158 50.9958375,5.35537708 C50.9958375,7.33305258 52.6076124,8.93627533 54.5958375,8.93627533 C56.5840626,8.93627533 58.1958375,7.33305258 58.1958375,5.35537708 C58.1935436,3.37864744 56.5831117,1.77676048 54.5958375,1.77447882 L54.5958375,1.77447882 Z" id="Shape"></path></g></g></svg>
